HIERARCHY
ROOT hip
{
	OFFSET 0.000000 0.000000 0.000000 
	CHANNELS 6 Xposition Yposition Zposition Xrotation Zrotation Yrotation
	JOINT abdomen
	{
		OFFSET 0.000000 3.402643 0.000000 
		CHANNELS 3 Xrotation Zrotation Yrotation
		JOINT chest
		{
			OFFSET 0.000000 8.438565 -0.680529 
			CHANNELS 3 Xrotation Zrotation Yrotation
			JOINT neck
			{
				OFFSET 0.000000 10.207942 -0.272212 
				CHANNELS 3 Xrotation Zrotation Yrotation
				JOINT head
				{
					OFFSET 0.000000 3.130431 0.000000 
					CHANNELS 3 Xrotation Zrotation Yrotation
					End Site
					{
						OFFSET 0.000000 3.130435 0.000000 
					}
				}
			}
			JOINT lCollar
			{
				OFFSET 3.470700 6.669187 -0.816635 
				CHANNELS 3 Yrotation Zrotation Xrotation
				JOINT lShldr
				{
					OFFSET 3.198488 0.000000 0.000000 
					CHANNELS 3 Zrotation Yrotation Xrotation
					JOINT lForeArm
					{
						OFFSET 10.139888 0.000000 0.000000 
						CHANNELS 3 Yrotation Zrotation Xrotation
						JOINT lHand
						{
							OFFSET 8.370511 0.000000 0.000000 
							CHANNELS 3 Zrotation Yrotation Xrotation
							End Site
							{
								OFFSET 4.083176 0.000000 0.000000 
							}
						}
					}
				}
			}
			JOINT rCollar
			{
				OFFSET -3.470700 6.669187 -0.816635 
				CHANNELS 3 Yrotation Zrotation Xrotation
				JOINT rShldr
				{
					OFFSET -3.198488 0.000000 0.000000 
					CHANNELS 3 Zrotation Yrotation Xrotation
					JOINT rForeArm
					{
						OFFSET -10.139888 0.000000 0.000000 
						CHANNELS 3 Yrotation Zrotation Xrotation
						JOINT rHand
						{
							OFFSET -8.370511 0.000000 0.000000 
							CHANNELS 3 Zrotation Yrotation Xrotation
							End Site
							{
								OFFSET -4.083176 0.000000 0.000000 
							}
						}
					}
				}
			}
		}
	}
	JOINT lThigh
	{
		OFFSET 5.308129 -1.633274 1.361059 
		CHANNELS 3 Xrotation Zrotation Yrotation
		JOINT lShin
		{
			OFFSET -2.041588 -20.007561 0.000000 
			CHANNELS 3 Xrotation Zrotation Yrotation
			JOINT lFoot
			{
				OFFSET 0.000000 -19.190928 -1.224953 
				CHANNELS 3 Xrotation Yrotation Zrotation
				End Site
				{
					OFFSET 0.000000 -2.449906 4.627600 
				}
			}
		}
	}
	JOINT rThigh
	{
		OFFSET -5.308129 -1.633274 1.361059 
		CHANNELS 3 Xrotation Zrotation Yrotation
		JOINT rShin
		{
			OFFSET 2.041588 -20.007561 0.000000 
			CHANNELS 3 Xrotation Zrotation Yrotation
			JOINT rFoot
			{
				OFFSET 0.000000 -19.190928 -1.224953 
				CHANNELS 3 Xrotation Yrotation Zrotation
				End Site
				{
					OFFSET 0.000000 -2.449906 4.627600 
				}
			}
		}
	}
}
MOTION
Frames: 6
Frame Time: 0.033333
-0.011167 51.358746 1.619980 7.011719 2.431640 -24.667971 46.028175 -5.069319 -4.730854 -4.736328 4.394531 1.836686 -0.009765 0.000000 0.000000 5.292968 6.464844 -5.009766 2.000000 -2.000000 0.000000 -40.898438 -2.099610 6.376954 -52.617317 0.495777 0.208586 11.670449 29.414268 -15.687567 -2.000000 2.000000 0.000000 49.277344 8.242188 -10.830078 52.061775 -1.183870 0.099473 -15.967871 -32.227333 32.776936 -16.681456 11.919108 -4.524337 24.136110 -5.107406 -2.982003 -10.420248 -1.407698 -7.260395 -29.378792 -12.742285 4.523081 22.012571 5.115203 2.511265 6.659828 -7.170984 16.739336 
-0.007957 51.375290 1.589831 6.855469 2.763672 -24.277344 45.654221 -4.946999 -4.611181 -4.550780 4.218750 1.787828 -0.009765 0.000000 0.000000 5.283203 6.650390 -5.175782 2.000000 -2.000000 0.000000 -41.328121 -1.640625 5.224306 -53.319725 0.487765 0.238319 10.144775 29.271116 -16.238962 -2.000000 2.000000 0.000000 49.433594 8.164063 -11.083984 52.591312 -0.955031 0.034783 -16.136574 -32.249577 33.193089 -16.560089 11.463421 -3.921185 23.781597 -4.911634 -2.720231 -10.240754 -1.843244 -6.913474 -29.522560 -13.102733 4.817774 22.027866 5.028567 2.302475 6.638161 -7.291399 17.082483 
0.004221 51.383549 1.553584 6.855469 2.949219 -23.895981 45.489948 -4.748291 -4.640947 -4.199219 4.189453 1.817119 -0.009765 0.000000 0.000000 5.117188 6.992187 -5.155061 2.000000 -2.000000 0.000000 -41.552734 -1.347656 4.394302 -53.680809 0.838709 0.217420 8.743670 28.916599 -16.742815 -2.000000 2.000000 0.000000 49.570313 8.027345 -11.238870 52.766857 -0.955609 0.044528 -16.136574 -32.249577 33.193089 -16.398359 11.333242 -3.906775 23.609388 -5.224558 -2.755069 -9.750278 -1.736674 -6.314354 -29.465010 -13.278609 4.470859 21.997875 4.760752 2.437885 7.000263 -7.339327 17.286142 
0.019953 51.375290 1.514919 6.679688 3.125000 -23.720169 45.314171 -4.748291 -4.640946 -4.033204 4.033203 1.943359 -0.009765 0.000000 0.000000 4.941406 7.158203 -5.351563 2.000000 -2.000000 0.000000 -41.914063 -1.015625 3.203125 -54.207687 0.820369 0.238072 7.170070 28.729033 -17.462156 -2.000000 2.000000 0.000000 49.589844 7.851562 -11.707649 52.947338 -0.636885 0.278446 -16.387384 -32.380630 33.048439 -16.425421 11.152078 -3.684868 23.443245 -5.127036 -2.907070 -9.819381 -2.115480 -6.121179 -29.566824 -13.826868 4.792216 22.385431 5.101964 2.569621 6.750938 -7.511812 17.201303 
0.033910 51.383549 1.477446 6.494140 3.310547 -23.349609 44.950253 -4.625964 -4.521326 -3.857421 4.023438 1.963576 -0.009765 0.000000 0.000000 4.765625 7.519532 -5.330754 2.000000 -2.000000 0.000000 -42.324219 -0.605469 2.363277 -54.734558 0.811778 0.258143 5.764557 28.710962 -17.989784 -2.000000 2.000000 0.000000 49.511719 7.148438 -11.816405 52.940376 -0.766420 0.153527 -16.711412 -32.591106 33.119495 -16.137388 10.700032 -3.259380 23.074030 -4.957295 -2.659393 -9.793293 -2.622243 -5.964125 -29.690050 -14.196467 4.895371 22.543194 5.072909 2.538792 7.131608 -7.600665 17.773043 
0.040696 51.391823 1.444855 6.503907 3.662110 -22.958359 44.761921 -4.494497 -4.399079 -3.681641 4.003906 1.973338 -0.009765 0.000000 0.000000 4.765625 7.519532 -5.506535 2.000000 -2.000000 0.000000 -42.695313 -0.449219 1.503830 -55.263714 0.943628 0.172214 4.746047 28.657442 -19.045086 -2.000000 2.000000 0.000000 49.042969 6.699219 -11.826172 52.942390 -0.956187 0.054274 -17.093138 -33.125019 33.240623 -15.959316 10.679266 -3.430845 22.747072 -5.497392 -2.749924 -9.582918 -2.713686 -5.287472 -29.626448 -14.539932 4.991323 22.719353 4.994889 2.549264 7.068524 -7.862184 17.723310 
